<?xml version="1.0" standalone="no"?>
<!DOCTYPE svg PUBLIC "-//W3C//DTD SVG 20010904//EN"
 "http://www.w3.org/TR/2001/REC-SVG-20010904/DTD/svg10.dtd">
<svg version="1.0" xmlns="http://www.w3.org/2000/svg"
 width="1100.000000pt" height="825.000000pt" viewBox="0 0 1100.000000 825.000000"
 preserveAspectRatio="xMidYMid meet">

<g transform="translate(0.000000,825.000000) scale(0.100000,-0.100000)"
fill="#000000" stroke="none">
<path d="M5605 8065 c-50 -18 -62 -19 -205 -10 -130 9 -245 -5 -463 -56 -246
-57 -456 -144 -617 -254 l-85 -59 -82 3 c-73 2 -88 -1 -141 -28 -32 -16 -68
-40 -80 -53 -112 -122 -302 -395 -358 -513 -20 -42 -38 -96 -41 -127 -5 -48
-2 -57 21 -85 32 -38 32 -51 1 -114 -44 -85 -144 -366 -165 -459 -7 -31 -18
-64 -25 -73 -13 -18 -193 -80 -207 -71 -4 3 -8 -1 -8 -8 0 -8 -23 -22 -50 -33
-28 -11 -85 -48 -127 -82 -43 -35 -81 -63 -85 -63 -5 0 -8 -4 -8 -8 0 -5 -22
-31 -48 -58 -64 -66 -165 -230 -203 -327 -33 -88 -77 -285 -85 -392 -11 -132
21 -320 74 -440 34 -77 115 -211 144 -239 13 -12 41 -44 63 -72 79 -101 244
-213 388 -265 20 -7 37 -18 37 -25 0 -12 123 -36 200 -39 25 -1 81 -5 125 -9
56 -6 116 -3 200 8 65 9 136 16 157 16 l38 0 0 -110 c0 -141 -21 -272 -64
-396 -19 -55 -60 -172 -91 -262 -60 -171 -67 -217 -45 -269 13 -30 12 -34 -53
-141 -78 -128 -132 -240 -176 -368 -27 -78 -31 -106 -31 -191 0 -193 49 -289
296 -581 67 -78 126 -159 145 -198 18 -36 40 -69 50 -74 9 -6 72 -14 139 -19
66 -5 122 -10 124 -12 1 -2 15 -37 30 -78 14 -40 42 -91 60 -113 38 -45 61
-113 53 -161 -3 -18 -21 -75 -42 -127 -20 -52 -53 -152 -74 -222 -21 -72 -51
-146 -67 -170 -54 -81 -109 -153 -122 -161 -6 -4 -21 -25 -31 -46 -11 -20 -27
-44 -37 -52 -9 -8 -28 -39 -42 -69 -13 -30 -27 -57 -31 -60 -4 -3 -13 -21 -20
-40 -10 -30 -9 -36 6 -48 10 -7 35 -15 56 -19 28 -4 37 -10 32 -21 -4 -11 0
-13 22 -7 46 13 325 17 336 6 6 -6 36 -10 67 -9 l55 1 -45 7 c-59 8 -35 17 69
24 83 5 201 32 201 46 0 3 -11 42 -24 86 -31 100 -74 199 -105 243 -30 42 -32
88 -5 126 10 16 29 46 41 67 12 21 46 71 76 111 30 39 70 97 90 128 20 31 57
78 82 104 25 26 45 51 45 56 0 5 4 9 8 9 4 0 19 21 31 48 20 40 25 69 31 187
4 77 10 148 14 157 10 23 29 25 261 38 185 10 244 17 365 41 25 4 111 11 192
15 l146 7 22 -43 c12 -24 33 -72 46 -107 66 -174 158 -299 298 -405 92 -70
226 -183 304 -256 38 -36 52 -57 53 -78 2 -67 -3 -134 -17 -219 -21 -132 -19
-230 6 -270 24 -39 51 -52 143 -66 87 -14 371 -7 439 11 98 25 121 85 74 185
-38 83 -183 312 -242 383 -30 36 -59 83 -64 104 -15 54 -46 119 -53 111 -4 -3
-7 3 -7 15 0 20 -57 137 -134 275 -21 37 -42 85 -47 105 -12 47 10 308 26 322
7 6 59 17 116 25 133 20 193 40 220 73 19 24 21 36 16 97 -3 39 -24 133 -47
209 -23 77 -39 147 -37 157 3 10 -1 23 -9 30 -20 16 -43 100 -37 135 3 16 16
83 29 150 13 66 28 166 32 222 6 70 14 108 25 120 23 26 36 205 42 607 3 187
8 391 11 453 l6 112 64 0 c50 0 64 -3 64 -15 0 -8 6 -15 14 -15 8 0 50 -20 94
-45 64 -36 96 -47 153 -54 109 -14 192 3 243 51 11 10 31 21 43 24 12 3 25 15
28 25 4 11 11 17 16 14 5 -4 9 4 9 17 0 13 9 43 21 67 11 25 17 51 14 58 -2 8
-1 12 4 8 11 -6 51 95 51 128 -1 42 -29 155 -55 223 -42 106 -241 459 -370
654 -152 233 -225 348 -225 359 0 5 44 12 98 16 201 13 286 41 388 127 41 34
63 66 107 153 33 63 61 135 68 170 23 118 -8 283 -87 467 -74 171 -256 384
-377 442 -81 38 -189 60 -258 52 l-59 -7 -30 48 c-98 159 -275 347 -500 531
-19 16 -71 50 -115 74 -44 25 -126 75 -182 111 -130 82 -393 212 -548 270
-140 53 -212 64 -270 42z m-375 -324 c0 -5 -35 -66 -78 -134 -43 -69 -84 -145
-91 -169 -17 -60 -1 -120 44 -165 30 -30 38 -33 93 -33 33 0 75 6 94 14 44 19
119 96 203 211 90 122 181 213 220 221 39 7 135 -23 272 -85 139 -63 202 -81
279 -81 l62 0 76 -87 c188 -218 477 -654 502 -755 3 -16 10 -28 14 -28 9 0 20
25 20 47 0 9 11 40 25 70 31 65 117 136 208 172 53 21 79 25 177 25 115 1 117
1 193 -37 90 -44 157 -106 245 -225 130 -176 207 -359 218 -519 19 -284 -148
-511 -414 -563 -102 -20 -281 -8 -372 25 -126 46 -130 46 -255 -30 -60 -37
-129 -80 -153 -96 -24 -16 -61 -38 -83 -49 -21 -11 -103 -63 -182 -114 -129
-85 -384 -234 -431 -252 -16 -6 -18 -2 -15 39 2 26 4 47 4 47 0 0 -24 -9 -53
-20 -73 -28 -101 -46 -145 -94 -31 -34 -39 -38 -48 -26 -5 8 -7 31 -4 51 8 56
-12 66 -75 38 -27 -12 -50 -25 -50 -29 0 -3 -13 -19 -28 -36 -47 -49 -87 -105
-142 -197 -29 -49 -65 -96 -79 -104 -14 -9 -42 -27 -62 -40 -130 -85 -782
-402 -798 -387 -2 2 16 36 40 75 60 100 78 159 79 254 0 63 -5 91 -24 130 -40
87 -115 135 -209 135 -170 0 -353 -122 -459 -306 -94 -164 -114 -317 -49 -388
10 -12 22 -31 25 -43 8 -26 16 -24 -201 -49 -198 -23 -376 -16 -498 21 -275
81 -432 198 -591 435 -100 151 -146 287 -160 473 -29 406 209 857 541 1025 33
17 103 42 155 56 113 30 132 46 149 137 22 110 125 395 173 476 20 32 21 33
91 33 59 0 75 4 103 25 33 25 124 138 124 154 0 5 7 15 16 22 9 7 42 52 74 99
59 88 122 156 152 166 23 7 63 -15 135 -75 90 -75 250 -180 294 -191 22 -6 54
-8 73 -5 66 13 136 94 136 157 0 70 -81 177 -222 295 -43 36 -78 69 -78 74 0
6 21 19 48 30 26 12 61 27 77 34 26 12 157 49 475 136 71 20 140 24 140 10z
m2162 -2431 c50 -64 150 -257 181 -350 32 -95 51 -249 44 -348 -9 -122 -52
-273 -97 -340 -48 -72 -72 -94 -139 -128 -77 -38 -114 -44 -205 -33 -44 6 -89
8 -101 5 -11 -3 -45 -26 -75 -51 -112 -92 -281 -160 -342 -136 -16 6 -28 15
-28 20 0 5 27 29 59 53 168 125 281 267 302 382 16 86 -38 212 -116 272 -49
37 -92 40 -185 13 -44 -12 -83 -20 -86 -16 -4 3 -4 21 0 40 7 39 115 154 153
163 17 5 21 9 12 14 -6 5 12 8 41 8 29 1 49 -2 46 -5 -8 -9 82 -43 112 -43 12
0 22 5 22 10 0 29 -67 122 -166 230 -18 19 -42 48 -55 63 -17 23 -24 26 -31
15 -8 -10 -9 -10 -5 2 3 9 -1 24 -9 35 -22 30 -17 38 24 30 42 -7 102 -40 179
-97 29 -21 57 -38 62 -38 13 0 129 -96 157 -128 26 -31 54 -24 54 13 0 32 -67
150 -128 224 -121 149 -137 201 -50 167 70 -27 242 -185 274 -252 8 -17 29
-44 46 -60 l30 -29 -6 35 c-16 90 -46 287 -46 308 0 19 3 20 18 11 9 -6 34
-33 54 -59z m-667 -40 c3 -5 1 -10 -4 -10 -6 0 -11 5 -11 10 0 6 2 10 4 10 3
0 8 -4 11 -10z m582 -72 c-3 -7 -5 -2 -5 12 0 14 2 19 5 13 2 -7 2 -19 0 -25z
m-937 -8 c-8 -5 -19 -10 -25 -10 -5 0 -3 5 5 10 8 5 20 10 25 10 6 0 3 -5 -5
-10z m-329 -132 c-23 -43 -41 -85 -41 -94 0 -8 -7 -17 -15 -20 -8 -4 -15 -13
-15 -21 0 -7 -11 -25 -25 -39 -21 -21 -36 -74 -20 -74 10 0 57 45 64 60 20 51
299 266 318 247 11 -11 -18 -65 -103 -194 -46 -70 -84 -133 -84 -140 0 -17 26
-7 85 36 45 32 57 36 125 39 l76 4 61 -51 c59 -49 112 -129 99 -150 -7 -10
-70 2 -123 24 -20 8 -46 15 -59 15 -12 0 -26 5 -29 10 -3 6 -25 10 -48 10 -86
0 -145 -98 -154 -254 -5 -82 -3 -99 15 -138 12 -24 41 -59 64 -78 24 -19 68
-57 98 -85 30 -27 97 -83 148 -124 50 -41 92 -79 92 -85 0 -12 -54 -11 -198 4
-66 7 -112 19 -159 40 -36 17 -72 30 -79 30 -7 0 -40 -17 -73 -39 -49 -31 -76
-41 -143 -51 -111 -16 -204 -6 -276 31 -60 30 -82 35 -82 19 0 -23 -28 -6 -62
39 -42 55 -45 67 -22 92 11 12 13 22 6 36 -6 10 -18 64 -27 120 -15 94 -15
110 0 218 21 153 75 292 154 400 16 22 46 64 66 93 71 103 154 159 139 95 -10
-47 -32 -115 -58 -184 -14 -37 -22 -70 -19 -73 12 -12 23 -6 23 12 0 48 122
189 240 277 92 69 100 58 41 -57z m316 40 c-3 -7 -5 -2 -5 12 0 14 2 19 5 13
2 -7 2 -19 0 -25z m-117 -222 c0 -2 -7 -7 -16 -10 -8 -3 -12 -2 -9 4 6 10 25
14 25 6z m1417 -233 c-3 -10 -5 -2 -5 17 0 19 2 27 5 18 2 -10 2 -26 0 -35z
m-1470 -245 c-2 -18 -4 -4 -4 32 0 36 2 50 4 33 2 -18 2 -48 0 -65z m-770 5
c-2 -16 -4 -5 -4 22 0 28 2 40 4 28 2 -13 2 -35 0 -50z m2144 -146 c-10 -9
-11 -8 -5 6 3 10 9 15 12 12 3 -3 0 -11 -7 -18z m-2154 7 c-3 -3 -12 -4 -19
-1 -8 3 -5 6 6 6 11 1 17 -2 13 -5z m-70 -10 c-3 -3 -12 -4 -19 -1 -8 3 -5 6
6 6 11 1 17 -2 13 -5z m-80 -10 c-3 -3 -12 -4 -19 -1 -8 3 -5 6 6 6 11 1 17
-2 13 -5z m-144 -21 c-7 -2 -19 -2 -25 0 -7 3 -2 5 12 5 14 0 19 -2 13 -5z
m-906 -39 c-3 -3 -12 -4 -19 -1 -8 3 -5 6 6 6 11 1 17 -2 13 -5z m906 -1 c-7
-2 -19 -2 -25 0 -7 3 -2 5 12 5 14 0 19 -2 13 -5z m-1116 -85 c-3 -8 -6 -5 -6
6 -1 11 2 17 5 13 3 -3 4 -12 1 -19z m3110 -14 c-3 -3 -12 -4 -19 -1 -8 3 -5
6 6 6 11 1 17 -2 13 -5z m60 -186 c-2 -24 -4 -5 -4 42 0 47 2 66 4 43 2 -24 2
-62 0 -85z m-556 94 c-7 -2 -18 1 -23 6 -8 8 -4 9 13 5 13 -4 18 -8 10 -11z
m-2597 -68 c3 -8 2 -12 -4 -9 -6 3 -10 10 -10 16 0 14 7 11 14 -7z m2403 -10
c-3 -3 -12 -4 -19 -1 -8 3 -5 6 6 6 11 1 17 -2 13 -5z m191 -11 c-10 -2 -26
-2 -35 0 -10 3 -2 5 17 5 19 0 27 -2 18 -5z m-731 -9 c-3 -3 -12 -4 -19 -1 -8
3 -5 6 6 6 11 1 17 -2 13 -5z m830 0 c-3 -3 -12 -4 -19 -1 -8 3 -5 6 6 6 11 1
17 -2 13 -5z m-1252 -124 c-3 -5 -12 -10 -18 -10 -7 0 -6 4 3 10 19 12 23 12
15 0z m1702 -162 c-2 -13 -4 -3 -4 22 0 25 2 35 4 23 2 -13 2 -33 0 -45z m-10
-230 c-3 -8 -6 -5 -6 6 -1 11 2 17 5 13 3 -3 4 -12 1 -19z m-10 -310 c-3 -7
-5 -2 -5 12 0 14 2 19 5 13 2 -7 2 -19 0 -25z m-3287 -72 c61 -59 341 -204
476 -246 87 -27 289 -67 406 -80 50 -6 95 -13 101 -17 11 -6 649 -26 887 -27
212 -1 572 38 780 84 49 11 135 27 192 35 120 18 260 50 337 76 30 11 56 19
58 19 1 0 3 -30 3 -67 0 -66 -18 -166 -55 -306 l-18 -69 43 -146 c77 -261 90
-316 90 -378 0 -44 -5 -68 -17 -82 -24 -27 -100 -48 -225 -62 -57 -7 -155 -18
-218 -26 -355 -45 -1033 -84 -1056 -62 -11 11 -42 352 -33 362 4 4 31 16 60
25 56 19 77 41 37 41 -43 0 -100 -21 -126 -47 -28 -28 -27 -5 -2 -282 8 -77 8
-127 3 -132 -29 -29 -1074 -75 -1338 -59 -218 13 -224 15 -264 94 -19 35 -83
122 -143 192 -197 232 -241 300 -271 424 -40 165 -31 225 70 450 60 136 165
320 181 320 4 0 22 -15 42 -34z m2977 -192 c-3 -3 -12 -4 -19 -1 -8 3 -5 6 6
6 11 1 17 -2 13 -5z m-774 -121 c-7 -2 -19 -2 -25 0 -7 3 -2 5 12 5 14 0 19
-2 13 -5z m-1020 -10 c-7 -2 -19 -2 -25 0 -7 3 -2 5 12 5 14 0 19 -2 13 -5z
m614 -9 c-3 -3 -12 -4 -19 -1 -8 3 -5 6 6 6 11 1 17 -2 13 -5z m230 0 c-3 -3
-12 -4 -19 -1 -8 3 -5 6 6 6 11 1 17 -2 13 -5z m885 -995 c19 -10 20 -16 13
-138 l-7 -128 37 -106 c20 -59 34 -111 31 -116 -10 -16 -155 -72 -225 -87 -78
-16 -181 -18 -233 -4 -81 23 -204 168 -264 313 -19 45 -44 101 -54 124 -36 78
-25 93 70 93 76 0 319 22 445 40 150 22 162 23 187 9z m-1777 -231 c-13 -171
-24 -258 -39 -285 -13 -27 -110 -138 -166 -191 -23 -22 -31 -24 -95 -19 -76 5
-173 39 -237 84 -43 29 -44 34 -23 97 16 45 15 46 -26 153 -22 60 -52 137 -65
172 l-24 64 102 -6 c57 -3 171 -2 253 2 83 4 189 8 238 9 l87 2 -5 -82z m1897
-305 c14 -17 55 -99 123 -248 32 -71 41 -115 24 -115 -6 0 -34 20 -60 45 -70
65 -95 63 -137 -15 -19 -33 -40 -60 -48 -60 -8 0 -31 18 -52 39 -20 21 -92 87
-160 146 -68 59 -122 109 -119 111 2 2 44 8 93 13 68 7 115 20 199 54 61 25
113 46 116 46 3 1 13 -7 21 -16z m-2434 -138 c28 -35 105 -66 191 -76 40 -4
76 -11 79 -13 10 -10 -9 -55 -52 -122 -25 -38 -50 -75 -56 -82 -6 -7 -20 -33
-31 -57 -11 -25 -22 -45 -24 -45 -20 0 -37 19 -45 51 -13 49 -34 69 -71 69
-37 0 -63 -13 -112 -56 -54 -49 -70 -46 -53 9 8 23 18 53 24 67 5 14 20 66 32
115 39 157 73 197 118 140z m2541 -247 c56 -53 67 -59 95 -54 28 5 34 2 62
-42 66 -99 194 -362 194 -398 0 -7 -9 -18 -20 -24 -21 -11 -182 -42 -197 -38
-4 1 -38 -2 -75 -6 -103 -12 -267 15 -308 50 -22 19 -24 150 -4 304 18 136 27
168 39 131 11 -36 28 -19 55 56 14 39 31 78 39 86 18 22 38 11 120 -65z
m-2506 -104 c10 -27 22 -62 26 -79 5 -24 12 -30 34 -30 15 -1 31 -5 36 -10 18
-21 123 -316 115 -324 -23 -22 -133 -34 -334 -36 -297 -3 -387 2 -395 22 -7
19 44 105 127 216 32 42 64 88 70 102 6 13 25 29 42 35 17 5 56 33 86 61 53
49 144 102 165 96 5 -2 18 -26 28 -53z"/>
<path d="M4263 7000 c-128 -27 -308 -164 -411 -313 -113 -163 -188 -357 -138
-357 9 0 26 36 46 99 30 94 86 200 140 266 122 147 220 222 333 257 57 17 86
20 166 16 117 -7 184 -30 273 -96 134 -100 169 -124 173 -120 7 7 -67 82 -119
122 -62 47 -156 95 -221 112 -67 18 -190 25 -242 14z"/>
<path d="M6073 6849 c-72 -12 -259 -82 -366 -136 -48 -25 -123 -71 -167 -102
-91 -65 -245 -233 -236 -257 8 -21 27 -8 73 51 110 139 242 234 478 345 137
64 188 74 357 75 82 0 148 3 148 8 0 26 -170 35 -287 16z"/>
<path d="M5438 6823 c-22 -25 -88 -152 -88 -169 0 -26 18 -15 38 24 35 68 64
117 73 127 11 11 12 35 1 35 -5 0 -16 -8 -24 -17z"/>
<path d="M4368 6685 c-114 -31 -172 -62 -233 -122 -128 -125 -165 -202 -165
-346 0 -151 48 -229 178 -290 59 -28 79 -32 173 -35 189 -7 351 51 471 169
151 148 166 323 43 487 -111 148 -264 192 -467 137z m247 -297 c30 -27 46 -83
33 -118 -23 -62 -95 -110 -194 -131 -73 -15 -104 -8 -145 32 -26 26 -30 36
-26 64 7 45 70 130 110 148 53 24 59 25 129 26 56 1 71 -3 93 -21z"/>
<path d="M7347 4666 c-29 -92 -34 -130 -15 -124 7 3 18 31 25 64 6 32 19 78
27 102 11 32 12 42 3 42 -7 0 -25 -38 -40 -84z"/>
<path d="M5710 4463 c0 -26 92 -206 108 -211 24 -7 -60 191 -92 217 -14 12
-16 11 -16 -6z"/>
</g>
</svg>
